<svg width="94" height="85" viewBox="0 0 94 85" fill="none" xmlns="http://www.w3.org/2000/svg">
    <path d="M93.2553 0C93.2685 3.3617 93.2784 6.7234 93.2845 10.0851C93.2874 11.6462 93.2913 13.2073 93.2978 14.7684C93.3034 16.1298 93.307 17.4913 93.3083 18.8528C93.309 19.5729 93.3107 20.293 93.3148 21.0132C93.3187 21.6927 93.3198 22.3721 93.319 23.0516C93.3192 23.4165 93.3222 23.7813 93.3253 24.1461C93.3181 26.2238 92.9445 28.0877 91.9419 29.9162C91.8693 30.0507 91.7968 30.1852 91.722 30.3237C90.9581 31.6865 90.0041 32.826 88.9397 33.9621C88.8168 34.0978 88.6939 34.2335 88.5673 34.3733C84.859 38.2956 79.7437 40.6994 75.0268 43.1382C74.0727 43.6319 73.1304 44.1387 72.2004 44.6765C71.8648 44.845 71.8648 44.845 71.4895 44.845C71.9873 45.4222 72.5826 45.7179 73.2486 46.0764C77.4813 48.4262 81.0054 51.9443 82.618 56.5723C82.871 57.4871 82.9587 58.367 82.9579 59.3141C82.9583 59.6527 82.9583 59.6527 82.9587 59.9981C82.958 60.2432 82.9573 60.4883 82.9566 60.7408C82.9566 61.0035 82.9566 61.2662 82.9567 61.5289C82.9568 62.2398 82.9557 62.9507 82.9543 63.6616C82.9532 64.4053 82.9531 65.1491 82.9528 65.8929C82.9523 67.3003 82.9507 68.7077 82.9488 70.1152C82.9467 71.7179 82.9457 73.3206 82.9448 74.9234C82.9428 78.2194 82.9395 81.5154 82.9353 84.8115C82.5601 84.4362 82.5601 84.4362 82.3255 83.8381C81.795 82.5579 80.768 81.6438 79.6634 80.8477C79.5438 80.761 79.4241 80.6744 79.3008 80.5851C75.7547 78.088 71.7339 76.2384 67.879 74.2733C56.7424 68.5959 56.7424 68.5959 53.2888 65.2973C53.1071 65.1334 53.1071 65.1334 52.9216 64.966C50.3625 62.5798 49.8127 59.0518 49.6872 55.698C49.6662 54.8692 49.6644 54.0404 49.6633 53.2114C49.6615 52.8966 49.6596 52.5819 49.6576 52.2671C49.6528 51.4215 49.6503 50.576 49.6486 49.7304C49.6475 49.2 49.646 48.6695 49.6443 48.139C49.6392 46.4727 49.6356 44.8065 49.6341 43.1402C49.6324 41.2285 49.6258 39.3169 49.615 37.4053C49.6068 35.9189 49.6031 34.4326 49.6026 32.9462C49.6022 32.0622 49.6 31.1783 49.5932 30.2944C49.587 29.4624 49.5863 28.6305 49.5895 27.7984C49.5898 27.496 49.5883 27.1937 49.5845 26.8913C49.526 21.8833 52.051 17.7505 55.4701 14.2486C57.7603 11.9859 60.4515 10.2245 63.2335 8.63126C63.4203 8.5226 63.4203 8.5226 63.6109 8.41174C71.6905 3.75101 83.7508 0 93.2553 0Z" fill="#92C021"/>
    <path d="M0.000213556 0C0.714743 0.0869794 1.42916 0.174886 2.14355 0.262947C2.34382 0.287314 2.54409 0.311681 2.75042 0.336786C4.4601 0.548279 6.14569 0.83303 7.83402 1.17273C7.97648 1.20105 8.11895 1.22937 8.26573 1.25856C17.5655 3.11251 27.6293 5.85748 35.0882 12.0087C35.1915 12.0925 35.2948 12.1763 35.4012 12.2627C39.2591 15.4034 42.6158 19.3579 43.5318 24.3927C43.6081 25.3993 43.6071 26.4019 43.6016 27.4106C43.6021 27.7077 43.6028 28.0048 43.6037 28.3019C43.6055 29.103 43.6037 29.904 43.6012 30.7051C43.5991 31.5491 43.5999 32.3932 43.6002 33.2373C43.6004 34.656 43.5983 36.0747 43.5949 37.4934C43.5909 39.1235 43.5902 40.7536 43.5914 42.3837C43.5925 43.962 43.5914 45.5403 43.5893 47.1186C43.5884 47.7852 43.5883 48.4517 43.5887 49.1183C43.5931 61.659 43.5931 61.659 39.683 65.5867C35.8676 69.3245 30.5829 71.6103 25.8443 73.9569C24.3131 74.7153 22.7986 75.502 21.2919 76.3079C20.9705 76.4794 20.6486 76.65 20.3264 76.82C14.6185 79.5768 14.6185 79.5768 10.6955 84.2486C10.5716 84.4343 10.4478 84.6201 10.3202 84.8115C10.3026 81.3307 10.2894 77.8499 10.2813 74.3691C10.2774 72.7527 10.2722 71.1363 10.2636 69.5199C10.2561 68.1101 10.2512 66.7004 10.2496 65.2906C10.2486 64.5449 10.2463 63.7993 10.2408 63.0537C10.2357 62.35 10.2342 61.6464 10.2353 60.9427C10.235 60.5652 10.231 60.1876 10.2268 59.8101C10.241 56.6317 11.4493 53.808 13.51 51.4123C13.6353 51.2621 13.7606 51.1119 13.8897 50.9571C15.687 48.871 17.786 47.3725 20.1314 45.9753C20.4188 45.8034 20.7031 45.6261 20.9869 45.4482C21.3907 45.2203 21.3907 45.2203 21.766 45.2203C21.766 45.0964 21.766 44.9726 21.766 44.845C21.6039 44.7948 21.4419 44.7445 21.2749 44.6928C20.6469 44.4721 20.0828 44.2082 19.4916 43.9032C19.2718 43.7899 19.052 43.6767 18.8255 43.56C18.5899 43.4372 18.3543 43.3144 18.1188 43.1915C17.9387 43.0978 17.9387 43.0978 17.755 43.0022C3.07998 35.3612 3.07998 35.3612 0.563122 28.333C0.516969 28.2108 0.470816 28.0885 0.423264 27.9625C-0.0533797 26.5733 -0.0759572 25.2736 -0.0636908 23.815C-0.0635317 23.5541 -0.0636218 23.2932 -0.0639399 23.0322C-0.0641003 22.3295 -0.060809 21.6268 -0.0568619 20.9241C-0.0533242 20.1876 -0.0530109 19.4511 -0.0523444 18.7146C-0.0506003 17.3225 -0.0459884 15.9303 -0.0403266 14.5382C-0.0340176 12.9522 -0.0309354 11.3663 -0.028114 9.78033C-0.0222426 6.52021 -0.0123522 3.26011 0.000213556 0Z" fill="#D6391E"/>
    <path d="M9.14186e-06 0C2.63007 0.306358 5.23755 0.650353 7.83381 1.17273C7.97628 1.20105 8.11874 1.22937 8.26552 1.25856C17.5653 3.11251 27.6291 5.85748 35.088 12.0087C35.1913 12.0925 35.2946 12.1763 35.401 12.2627C39.2976 15.4349 42.5391 19.3409 43.5316 24.3927C43.6011 25.1282 43.6052 25.8556 43.5985 26.594C43.5988 26.8012 43.5992 27.0083 43.5996 27.2218C43.6002 27.8986 43.5967 28.5753 43.5931 29.2522C43.5926 29.7258 43.5922 30.1995 43.5921 30.6732C43.5912 31.662 43.5886 32.6509 43.5843 33.6397C43.5789 34.9066 43.577 36.1735 43.5762 37.4405C43.5754 38.4169 43.5735 39.3933 43.5713 40.3698C43.5702 40.837 43.5693 41.3043 43.5686 41.7715C43.5673 42.4236 43.5648 43.0755 43.5618 43.7275C43.5616 43.92 43.5614 44.1124 43.5612 44.3107C43.5558 45.1976 43.5285 46.0369 43.3439 46.909C42.9377 46.5137 42.5702 46.1003 42.2064 45.6659C38.6524 41.6169 33.4001 39.2914 28.6947 36.8728C27.8948 36.4595 27.0996 36.0375 26.3042 35.6157C25.1123 34.9851 23.9117 34.3743 22.704 33.7745C21.0452 32.95 19.4019 32.0999 17.7673 31.2284C17.2056 30.9297 16.6425 30.6334 16.0795 30.3369C12.8079 28.6054 9.53422 26.8667 6.75491 24.3927C6.59164 24.2497 6.42838 24.1068 6.26016 23.9595C5.79421 23.5465 5.33498 23.1275 4.87855 22.704C4.70222 22.5429 4.70222 22.5429 4.52233 22.3785C2.01132 19.9925 0.0397814 16.5852 -0.0796652 13.0689C-0.0893559 12.3404 -0.0829386 11.6127 -0.0732862 10.8844C-0.0718824 10.5684 -0.0708159 10.2524 -0.0700681 9.93646C-0.0672338 9.11406 -0.0598884 8.29177 -0.0515266 7.46941C-0.0437804 6.62657 -0.0404064 5.78371 -0.0366385 4.94084C-0.0286446 3.29385 -0.0158737 1.64694 9.14186e-06 0Z" fill="#BD1823"/>
    <path d="M71.6768 45.2203C73.6509 46.2062 75.4249 47.3754 77.1183 48.7854C77.2883 48.9267 77.4583 49.0679 77.6335 49.2135C80.2688 51.4918 82.4306 54.6632 82.935 58.1672C82.9509 58.5493 82.9579 58.9318 82.9575 59.3141C82.9579 59.6527 82.9579 59.6527 82.9583 59.9982C82.9576 60.2433 82.957 60.4884 82.9563 60.7409C82.9562 61.0036 82.9563 61.2662 82.9564 61.5289C82.9564 62.2398 82.9553 62.9507 82.954 63.6616C82.9528 64.4054 82.9527 65.1491 82.9525 65.8929C82.9519 67.3003 82.9504 68.7078 82.9485 70.1152C82.9464 71.7179 82.9454 73.3207 82.9444 74.9234C82.9425 78.2195 82.9392 81.5155 82.935 84.8115C82.5597 84.4363 82.5597 84.4363 82.3252 83.8382C81.7947 82.558 80.7677 81.6438 79.6631 80.8477C79.5434 80.7611 79.4237 80.6745 79.3004 80.5852C75.7544 78.088 71.7336 76.2385 67.8787 74.2733C56.7421 68.596 56.7421 68.596 53.2885 65.2974C53.1673 65.1881 53.0461 65.0787 52.9213 64.9661C51.2091 63.3695 50.2397 61.2197 50.0503 58.8841C50.1315 57.9954 50.6527 57.5062 51.2245 56.8538C51.3224 56.7382 51.4204 56.6225 51.5213 56.5034C55.0096 52.708 60.4369 50.4297 64.9424 48.126C65.7796 47.6957 66.6113 47.2553 67.4433 46.8152C67.7286 46.6654 68.014 46.5156 68.2994 46.3659C68.7546 46.1271 69.2077 45.8853 69.6597 45.6403C69.9093 45.5079 69.9093 45.5079 70.164 45.3728C70.2973 45.3005 70.4305 45.2281 70.5679 45.1536C71.0202 45.001 71.2248 45.0807 71.6768 45.2203Z" fill="#6EB629"/>
    <path d="M93.0676 14.0728C93.1295 14.0728 93.1914 14.0728 93.2552 14.0728C93.2684 15.5996 93.2783 17.1264 93.2844 18.6533C93.2873 19.3625 93.2913 20.0717 93.2977 20.7809C93.3039 21.4671 93.3072 22.1532 93.3086 22.8395C93.3097 23.0995 93.3117 23.3594 93.3148 23.6194C93.3405 25.8942 93.0433 27.9073 91.9418 29.9163C91.8692 30.0507 91.7967 30.1852 91.7219 30.3237C90.958 31.6866 90.004 32.8261 88.9396 33.9622C88.8167 34.0979 88.6939 34.2336 88.5673 34.3734C85.5904 37.522 81.6547 39.6573 77.8691 41.6553C77.6848 41.7527 77.5006 41.8501 77.3108 41.9504C74.8956 43.2248 72.4644 44.4637 70.0158 45.6723C67.3286 46.9998 64.6734 48.3675 62.0519 49.8204C61.5333 50.1051 61.0119 50.3838 60.4893 50.661C54.6584 53.656 54.6584 53.656 50.2866 58.3549C50.1627 58.3549 50.0389 58.3549 49.9113 58.3549C49.685 56.408 49.6619 54.47 49.6477 52.5118C49.6436 52.0915 49.6372 51.6712 49.6284 51.251C49.6158 50.6382 49.6107 50.0257 49.6071 49.4128C49.6019 49.2273 49.5967 49.0417 49.5913 48.8506C49.5962 47.189 50.251 46.1077 51.3134 44.8656C55.4188 41.1255 60.5628 38.6522 65.4687 36.1414C66.4206 35.6537 67.3667 35.1555 68.3114 34.6541C69.4876 34.0311 70.6727 33.4285 71.8647 32.8364C73.694 31.9263 75.5069 30.99 77.3062 30.0218C77.5036 29.916 77.701 29.8102 77.9044 29.7012C83.9879 26.4282 90.4807 22.5054 92.6997 15.5233C92.832 15.0414 92.9563 14.5599 93.0676 14.0728Z" fill="#FACE22"/>
    <path d="M0.000148289 14.2603C0.298868 14.8391 0.496912 15.3937 0.680329 16.0193C1.42851 18.286 2.72515 20.1913 4.31578 21.9533C4.45171 22.1047 4.58764 22.2562 4.7277 22.4122C10.0646 28.0386 18.0103 31.1566 24.8121 34.631C41.7249 43.271 41.7249 43.271 43.1564 46.7213C43.2184 46.4117 43.2803 46.1021 43.3441 45.7831C43.406 45.7831 43.4679 45.7831 43.5317 45.7831C43.5365 47.0711 43.5398 48.3591 43.542 49.6471C43.543 50.0842 43.5442 50.5213 43.5459 50.9584C43.5695 57.4536 43.5695 57.4536 42.9688 58.3547C42.8828 58.2248 42.8828 58.2248 42.7951 58.0923C38.086 51.3802 27.2164 47.4579 19.9871 44.1175C18.3325 43.3445 16.7435 42.4492 15.148 41.5623C14.6493 41.2873 14.1481 41.0178 13.6455 40.7499C8.48892 37.9904 2.62642 34.0948 0.563056 28.333C0.5168 28.2131 0.470543 28.0933 0.422885 27.9698C-0.0814842 26.5214 -0.0723335 25.1238 -0.0548232 23.6054C-0.053771 23.3346 -0.0529708 23.0639 -0.0524096 22.7931C-0.0502789 22.0867 -0.0447653 21.3804 -0.0385035 20.674C-0.0327049 19.9507 -0.0301657 19.2274 -0.0273375 18.5041C-0.0213332 17.0894 -0.0117487 15.6748 0.000148289 14.2603Z" fill="#EBAA1D"/>
    <path d="M-6.81728e-05 0C2.63 0.306358 5.23748 0.650353 7.83374 1.17273C7.9762 1.20105 8.11866 1.22937 8.26545 1.25856C17.2618 3.05203 27.4625 5.68699 34.7126 11.6334C34.7126 11.7573 34.7126 11.8811 34.7126 12.0087C34.5535 12.0161 34.3944 12.0236 34.2305 12.0312C24.0036 12.5292 11.4485 13.9137 3.94029 21.7658C1.18187 18.3746 -0.131241 15.2519 -0.0733635 10.8844C-0.0719597 10.5684 -0.0708932 10.2524 -0.0701454 9.93646C-0.0673111 9.11406 -0.0599657 8.29177 -0.051604 7.46941C-0.0438577 6.62657 -0.0404837 5.78371 -0.0367158 4.94084C-0.0287219 3.29385 -0.015951 1.64694 -6.81728e-05 0Z" fill="#C91D2A"/>
    <path d="M93.2551 0C93.277 1.78298 93.2936 3.56592 93.3037 5.34901C93.3086 6.17729 93.3151 7.00548 93.3259 7.83371C93.3362 8.63548 93.3417 9.43716 93.3441 10.239C93.3458 10.5424 93.3492 10.8457 93.3543 11.1491C93.4146 14.8689 92.2485 17.9361 90.0044 20.9192C89.69 21.2029 89.69 21.2029 88.9395 21.2029C88.5547 20.8994 88.5547 20.8994 88.1303 20.4758C82.7597 15.4732 74.7834 13.1253 67.6588 12.2563C67.1253 12.1904 66.5929 12.1181 66.0603 12.0454C63.8059 11.7434 61.5661 11.529 59.293 11.4458C59.293 11.322 59.293 11.1981 59.293 11.0705C59.5637 10.851 59.5637 10.851 59.9475 10.6073C60.0898 10.5166 60.2322 10.4259 60.3788 10.3324C60.5352 10.2354 60.6916 10.1384 60.8527 10.0385C61.0146 9.9378 61.1766 9.83708 61.3434 9.7333C70.1072 4.34673 82.7621 0 93.2551 0Z" fill="#A7CC28"/>
    <path d="M93.0675 14.0728C93.1294 14.0728 93.1914 14.0728 93.2552 14.0728C93.2639 15.6288 93.2705 17.1848 93.2746 18.7408C93.2766 19.4633 93.2792 20.1858 93.2835 20.9083C93.2875 21.6054 93.2898 22.3025 93.2908 22.9997C93.2915 23.2658 93.2928 23.5319 93.2948 23.798C93.2976 24.1704 93.2977 24.5428 93.2978 24.9152C93.2986 25.1273 93.2994 25.3394 93.3003 25.5579C93.2552 26.0815 93.2552 26.0815 92.8799 26.6444C92.7619 26.4494 92.6438 26.2545 92.5222 26.0536C91.6753 24.6692 90.8329 23.3521 89.7648 22.1257C89.5024 21.7658 89.5024 21.7658 89.5024 21.2029C89.7106 20.9361 89.932 20.6797 90.1592 20.4289C91.6399 18.6326 92.5967 16.3435 93.0675 14.0728Z" fill="#F8C13E"/>
    <path d="M0 14.2603C0.304117 14.8685 0.491432 15.3755 0.680181 16.0193C1.28824 17.8753 2.29436 19.608 3.57755 21.0811C3.75272 21.3904 3.75272 21.3904 3.73513 21.7532C3.51037 22.2657 3.19503 22.5747 2.80281 22.9736C1.92836 23.9081 1.31204 24.8848 0.680914 25.989C0.580052 26.1433 0.47919 26.2976 0.375272 26.4566C0.251432 26.4566 0.127593 26.4566 0 26.4566C0 22.4318 0 18.407 0 14.2603Z" fill="#EEB129"/>
    <path d="M0 14.2603C0.30838 14.877 0.452806 15.2884 0.562908 15.949C0.439068 15.949 0.315229 15.949 0.187636 15.949C0.187636 19.4165 0.187636 22.884 0.187636 26.4566C0.125716 26.4566 0.0637963 26.4566 0 26.4566C0 22.4318 0 18.407 0 14.2603Z" fill="#E48E2F"/>
</svg>